<svg width="1960" height="353" viewBox="0 0 1960 353" fill="none" xmlns="http://www.w3.org/2000/svg">
<path d="M94.5 219.515V2.01479C94.5 2.01479 101.5 -1.48521 119.5 4.51479C137.5 10.5148 145 22.5148 145 22.5148C145 22.5148 251 197.515 251 208.515C251 219.515 235 219.515 228 219.515H94.5Z" fill="white"/>
<path d="M85.5 2.01479H2.5H1L2.5 4.51479L85.5 147.015V2.01479Z" fill="white"/>
<path d="M406.5 2.01479H204V8.01479L204.432 8.0734C210.775 8.93353 214.463 9.43353 232 11.0148C246.264 14.7437 254.036 17.2039 265.5 25.5148C281.154 36.6229 286.671 42.5852 294 53.0148C295.151 52.6922 308.373 75.1568 313 92.5148C317.627 109.873 314.669 118.317 313 135.015C309.706 149.371 307.626 155.934 301 169.515C293.296 182.952 287.858 190.879 273 206.015C273 206.015 252.302 225.043 228 227.515H132.5L204 351.015L406.5 2.01479Z" fill="white"/>
<path d="M94.5 219.515V2.01479C94.5 2.01479 101.5 -1.48521 119.5 4.51479C137.5 10.5148 145 22.5148 145 22.5148C145 22.5148 251 197.515 251 208.515C251 219.515 235 219.515 228 219.515H94.5Z" stroke="white"/>
<path d="M85.5 2.01479H2.5H1L2.5 4.51479L85.5 147.015V2.01479Z" stroke="white"/>
<path d="M406.5 2.01479H204V8.01479L204.432 8.0734C210.775 8.93353 214.463 9.43353 232 11.0148C246.264 14.7437 254.036 17.2039 265.5 25.5148C281.154 36.6229 286.671 42.5852 294 53.0148C295.151 52.6922 308.373 75.1568 313 92.5148C317.627 109.873 314.669 118.317 313 135.015C309.706 149.371 307.626 155.934 301 169.515C293.296 182.952 287.858 190.879 273 206.015C273 206.015 252.302 225.043 228 227.515H132.5L204 351.015L406.5 2.01479Z" stroke="white"/>
<path d="M468.84 116.56C477.48 116.56 484.616 117.392 490.248 119.056C495.88 120.72 500.296 122.992 503.496 125.872C506.696 128.752 508.936 132.048 510.216 135.76C511.56 139.408 512.232 143.248 512.232 147.28C512.232 151.312 511.496 155.184 510.024 158.896C508.552 162.544 506.12 165.808 502.728 168.688C499.4 171.568 494.952 173.84 489.384 175.504C483.88 177.168 477.032 178 468.84 178H399.72V116.56H468.84ZM423.72 158.8H467.88C471.464 158.8 474.504 158.576 477 158.128C479.496 157.616 481.48 156.88 482.952 155.92C484.488 154.96 485.576 153.776 486.216 152.368C486.92 150.896 487.272 149.2 487.272 147.28C487.272 145.36 486.92 143.696 486.216 142.288C485.576 140.816 484.488 139.6 482.952 138.64C481.48 137.68 479.496 136.976 477 136.528C474.504 136.016 471.464 135.76 467.88 135.76H423.72V158.8ZM534.714 168.688V154.288H600.378V168.688H534.714ZM513.21 178L554.394 116.56H581.082L622.65 178H596.25L560.634 122.992H574.938L539.61 178H513.21ZM649.856 178L612.608 116.56H639.68L671.456 175.6H661.664L693.44 116.56H720.128L683.264 178H649.856ZM730.223 116.56H754.223V178H730.223V116.56ZM865.383 159.184L856.455 164.272V116.56H880.455V178H856.455L784.167 136.144L793.095 130.96V178H769.095V116.56H793.095L865.383 159.184ZM1007.64 152.368C1007.32 158.448 1005.11 163.536 1001.01 167.632C996.916 171.728 990.868 174.8 982.868 176.848C974.932 178.896 964.884 179.92 952.724 179.92C943.444 179.92 935.124 179.408 927.764 178.384C920.404 177.424 914.132 175.76 908.948 173.392C903.764 170.96 899.796 167.664 897.044 163.504C894.292 159.344 892.916 154.096 892.916 147.76C892.916 141.424 894.292 136.144 897.044 131.92C899.796 127.632 903.764 124.24 908.948 121.744C914.132 119.184 920.404 117.36 927.764 116.272C935.124 115.184 943.444 114.64 952.724 114.64C964.884 114.64 974.964 115.76 982.964 118C990.964 120.176 997.012 123.408 1001.11 127.696C1005.2 131.984 1007.41 137.2 1007.73 143.344H982.772C982.004 141.296 980.596 139.504 978.548 137.968C976.5 136.368 973.428 135.12 969.332 134.224C965.236 133.328 959.7 132.88 952.724 132.88C944.532 132.88 937.876 133.392 932.756 134.416C927.636 135.376 923.892 136.944 921.524 139.12C919.156 141.296 917.972 144.176 917.972 147.76C917.972 151.024 919.156 153.68 921.524 155.728C923.892 157.776 927.636 159.28 932.756 160.24C937.876 161.2 944.532 161.68 952.724 161.68C959.7 161.68 965.204 161.264 969.236 160.432C973.332 159.6 976.404 158.48 978.452 157.072C980.5 155.6 981.908 154.032 982.676 152.368H1007.64ZM1021.69 116.56H1045.69V178H1021.69V116.56ZM1204.04 152.368C1203.72 158.448 1201.51 163.536 1197.42 167.632C1193.32 171.728 1187.27 174.8 1179.27 176.848C1171.34 178.896 1161.29 179.92 1149.13 179.92C1139.85 179.92 1131.53 179.408 1124.17 178.384C1116.81 177.424 1110.54 175.76 1105.35 173.392C1100.17 170.96 1096.2 167.664 1093.45 163.504C1090.7 159.344 1089.32 154.096 1089.32 147.76C1089.32 141.424 1090.7 136.144 1093.45 131.92C1096.2 127.632 1100.17 124.24 1105.35 121.744C1110.54 119.184 1116.81 117.36 1124.17 116.272C1131.53 115.184 1139.85 114.64 1149.13 114.64C1161.29 114.64 1171.37 115.76 1179.37 118C1187.37 120.176 1193.42 123.408 1197.51 127.696C1201.61 131.984 1203.82 137.2 1204.14 143.344H1179.18C1178.41 141.296 1177 139.504 1174.95 137.968C1172.91 136.368 1169.83 135.12 1165.74 134.224C1161.64 133.328 1156.11 132.88 1149.13 132.88C1140.94 132.88 1134.28 133.392 1129.16 134.416C1124.04 135.376 1120.3 136.944 1117.93 139.12C1115.56 141.296 1114.38 144.176 1114.38 147.76C1114.38 151.024 1115.56 153.68 1117.93 155.728C1120.3 157.776 1124.04 159.28 1129.16 160.24C1134.28 161.2 1140.94 161.68 1149.13 161.68C1156.11 161.68 1161.61 161.264 1165.64 160.432C1169.74 159.6 1172.81 158.48 1174.86 157.072C1176.91 155.6 1178.31 154.032 1179.08 152.368H1204.04ZM1237.2 137.776H1304.79V156.016H1237.2V137.776ZM1302.1 116.56H1326.1V178H1302.1V116.56ZM1216.66 116.56H1240.66V178H1216.66V116.56ZM1355.31 168.688V154.288H1420.97V168.688H1355.31ZM1333.8 178L1374.99 116.56H1401.68L1443.24 178H1416.84L1381.23 122.992H1395.53L1360.2 178H1333.8ZM1452.38 116.56H1476.38V178H1452.38V116.56ZM1587.54 159.184L1578.61 164.272V116.56H1602.61V178H1578.61L1506.32 136.144L1515.25 130.96V178H1491.25V116.56H1515.25L1587.54 159.184Z" fill="white"/>
</svg>
