<svg width="1622" height="351" viewBox="0 0 1622 351" fill="none" xmlns="http://www.w3.org/2000/svg">
<path d="M93.5 218.515V1.01479C93.5 1.01479 100.5 -2.48521 118.5 3.51479C136.5 9.51479 144 21.5148 144 21.5148C144 21.5148 250 196.515 250 207.515C250 218.515 234 218.515 227 218.515H93.5Z" fill="url(#paint0_linear_1_12)"/>
<path d="M84.5 1.01479H1.5H0L1.5 3.51479L84.5 146.015V1.01479Z" fill="url(#paint1_linear_1_12)"/>
<path d="M405.5 1.01479H203V7.01479L203.432 7.0734C209.775 7.93353 213.463 8.43353 231 10.0148C245.264 13.7437 253.036 16.2039 264.5 24.5148C280.154 35.6229 285.671 41.5852 293 52.0148C294.151 51.6922 307.373 74.1568 312 91.5148C316.627 108.873 313.669 117.317 312 134.015C308.706 148.371 306.626 154.934 300 168.515C292.296 181.952 286.858 189.879 272 205.015C272 205.015 251.302 224.043 227 226.515H131.5L203 350.015L405.5 1.01479Z" fill="url(#paint2_linear_1_12)"/>
<path d="M506.12 123.08C517.64 123.08 527.155 124.189 534.664 126.408C542.173 128.627 548.061 131.656 552.328 135.496C556.595 139.336 559.581 143.731 561.288 148.68C563.08 153.544 563.976 158.664 563.976 164.04C563.976 169.416 562.995 174.579 561.032 179.528C559.069 184.392 555.827 188.744 551.304 192.584C546.867 196.424 540.936 199.453 533.512 201.672C526.173 203.891 517.043 205 506.12 205H413.96V123.08H506.12ZM445.96 179.4H504.84C509.619 179.4 513.672 179.101 517 178.504C520.328 177.821 522.973 176.84 524.936 175.56C526.984 174.28 528.435 172.701 529.288 170.824C530.227 168.861 530.696 166.6 530.696 164.04C530.696 161.48 530.227 159.261 529.288 157.384C528.435 155.421 526.984 153.8 524.936 152.52C522.973 151.24 520.328 150.301 517 149.704C513.672 149.021 509.619 148.68 504.84 148.68H445.96V179.4ZM593.952 192.584V173.384H681.504V192.584H593.952ZM565.28 205L620.192 123.08H655.776L711.2 205H676L628.512 131.656H647.584L600.48 205H565.28ZM747.474 205L697.81 123.08H733.906L776.274 201.8H763.218L805.586 123.08H841.17L792.018 205H747.474ZM854.63 123.08H886.63V205H854.63V123.08ZM1034.84 179.912L1022.94 186.696V123.08H1054.94V205H1022.94L926.556 149.192L938.46 142.28V205H906.46V123.08H938.46L1034.84 179.912ZM1224.52 170.824C1224.09 178.931 1221.14 185.715 1215.68 191.176C1210.22 196.637 1202.16 200.733 1191.49 203.464C1180.91 206.195 1167.51 207.56 1151.3 207.56C1138.93 207.56 1127.83 206.877 1118.02 205.512C1108.21 204.232 1099.84 202.013 1092.93 198.856C1086.02 195.613 1080.73 191.219 1077.06 185.672C1073.39 180.125 1071.56 173.128 1071.56 164.68C1071.56 156.232 1073.39 149.192 1077.06 143.56C1080.73 137.843 1086.02 133.32 1092.93 129.992C1099.84 126.579 1108.21 124.147 1118.02 122.696C1127.83 121.245 1138.93 120.52 1151.3 120.52C1167.51 120.52 1180.95 122.013 1191.62 125C1202.29 127.901 1210.35 132.211 1215.81 137.928C1221.27 143.645 1224.22 150.6 1224.64 158.792H1191.36C1190.34 156.061 1188.46 153.672 1185.73 151.624C1183 149.491 1178.9 147.827 1173.44 146.632C1167.98 145.437 1160.6 144.84 1151.3 144.84C1140.38 144.84 1131.5 145.523 1124.68 146.888C1117.85 148.168 1112.86 150.259 1109.7 153.16C1106.54 156.061 1104.96 159.901 1104.96 164.68C1104.96 169.032 1106.54 172.573 1109.7 175.304C1112.86 178.035 1117.85 180.04 1124.68 181.32C1131.5 182.6 1140.38 183.24 1151.3 183.24C1160.6 183.24 1167.94 182.685 1173.32 181.576C1178.78 180.467 1182.87 178.973 1185.6 177.096C1188.33 175.133 1190.21 173.043 1191.24 170.824H1224.52ZM1243.26 123.08H1275.26V205H1243.26V123.08Z" fill="white"/>
<defs>
<linearGradient id="paint0_linear_1_12" x1="372" y1="109.5" x2="12.5" y2="112" gradientUnits="userSpaceOnUse">
<stop offset="0.163333" stop-color="#0AD793"/>
<stop offset="0.798766" stop-color="#441182"/>
<stop offset="1" stop-color="#0AD793"/>
</linearGradient>
<linearGradient id="paint1_linear_1_12" x1="372" y1="109.5" x2="12.5" y2="112" gradientUnits="userSpaceOnUse">
<stop offset="0.163333" stop-color="#0AD793"/>
<stop offset="0.798766" stop-color="#441182"/>
<stop offset="1" stop-color="#0AD793"/>
</linearGradient>
<linearGradient id="paint2_linear_1_12" x1="372" y1="109.5" x2="12.5" y2="112" gradientUnits="userSpaceOnUse">
<stop offset="0.163333" stop-color="#0AD793"/>
<stop offset="0.798766" stop-color="#441182"/>
<stop offset="1" stop-color="#0AD793"/>
</linearGradient>
</defs>
</svg>
