<svg width="1622" height="351" viewBox="0 0 1622 351" fill="none" xmlns="http://www.w3.org/2000/svg">
<path d="M93.5 218.515V1.01479C93.5 1.01479 100.5 -2.48521 118.5 3.51479C136.5 9.51479 144 21.5148 144 21.5148C144 21.5148 250 196.515 250 207.515C250 218.515 234 218.515 227 218.515H93.5Z" fill="url(#paint0_linear_1_12)"/>
<path d="M84.5 1.01479H1.5H0L1.5 3.51479L84.5 146.015V1.01479Z" fill="url(#paint1_linear_1_12)"/>
<path d="M405.5 1.01479H203V7.01479L203.432 7.0734C209.775 7.93353 213.463 8.43353 231 10.0148C245.264 13.7437 253.036 16.2039 264.5 24.5148C280.154 35.6229 285.671 41.5852 293 52.0148C294.151 51.6922 307.373 74.1568 312 91.5148C316.627 108.873 313.669 117.317 312 134.015C308.706 148.371 306.626 154.934 300 168.515C292.296 181.952 286.858 189.879 272 205.015C272 205.015 251.302 224.043 227 226.515H131.5L203 350.015L405.5 1.01479Z" fill="url(#paint2_linear_1_12)"/>
<path d="M480.84 125.56C489.48 125.56 496.616 126.392 502.248 128.056C507.88 129.72 512.296 131.992 515.496 134.872C518.696 137.752 520.936 141.048 522.216 144.76C523.56 148.408 524.232 152.248 524.232 156.28C524.232 160.312 523.496 164.184 522.024 167.896C520.552 171.544 518.12 174.808 514.728 177.688C511.4 180.568 506.952 182.84 501.384 184.504C495.88 186.168 489.032 187 480.84 187H411.72V125.56H480.84ZM435.72 167.8H479.88C483.464 167.8 486.504 167.576 489 167.128C491.496 166.616 493.48 165.88 494.952 164.92C496.488 163.96 497.576 162.776 498.216 161.368C498.92 159.896 499.272 158.2 499.272 156.28C499.272 154.36 498.92 152.696 498.216 151.288C497.576 149.816 496.488 148.6 494.952 147.64C493.48 146.68 491.496 145.976 489 145.528C486.504 145.016 483.464 144.76 479.88 144.76H435.72V167.8ZM546.714 177.688V163.288H612.378V177.688H546.714ZM525.21 187L566.394 125.56H593.082L634.65 187H608.25L572.634 131.992H586.938L551.61 187H525.21ZM661.856 187L624.608 125.56H651.68L683.456 184.6H673.664L705.44 125.56H732.128L695.264 187H661.856ZM742.223 125.56H766.223V187H742.223V125.56ZM877.383 168.184L868.455 173.272V125.56H892.455V187H868.455L796.167 145.144L805.095 139.96V187H781.095V125.56H805.095L877.383 168.184ZM1019.64 161.368C1019.32 167.448 1017.11 172.536 1013.01 176.632C1008.92 180.728 1002.87 183.8 994.868 185.848C986.932 187.896 976.884 188.92 964.724 188.92C955.444 188.92 947.124 188.408 939.764 187.384C932.404 186.424 926.132 184.76 920.948 182.392C915.764 179.96 911.796 176.664 909.044 172.504C906.292 168.344 904.916 163.096 904.916 156.76C904.916 150.424 906.292 145.144 909.044 140.92C911.796 136.632 915.764 133.24 920.948 130.744C926.132 128.184 932.404 126.36 939.764 125.272C947.124 124.184 955.444 123.64 964.724 123.64C976.884 123.64 986.964 124.76 994.964 127C1002.96 129.176 1009.01 132.408 1013.11 136.696C1017.2 140.984 1019.41 146.2 1019.73 152.344H994.772C994.004 150.296 992.596 148.504 990.548 146.968C988.5 145.368 985.428 144.12 981.332 143.224C977.236 142.328 971.7 141.88 964.724 141.88C956.532 141.88 949.876 142.392 944.756 143.416C939.636 144.376 935.892 145.944 933.524 148.12C931.156 150.296 929.972 153.176 929.972 156.76C929.972 160.024 931.156 162.68 933.524 164.728C935.892 166.776 939.636 168.28 944.756 169.24C949.876 170.2 956.532 170.68 964.724 170.68C971.7 170.68 977.204 170.264 981.236 169.432C985.332 168.6 988.404 167.48 990.452 166.072C992.5 164.6 993.908 163.032 994.676 161.368H1019.64ZM1033.69 125.56H1057.69V187H1033.69V125.56ZM1216.04 161.368C1215.72 167.448 1213.51 172.536 1209.42 176.632C1205.32 180.728 1199.27 183.8 1191.27 185.848C1183.34 187.896 1173.29 188.92 1161.13 188.92C1151.85 188.92 1143.53 188.408 1136.17 187.384C1128.81 186.424 1122.54 184.76 1117.35 182.392C1112.17 179.96 1108.2 176.664 1105.45 172.504C1102.7 168.344 1101.32 163.096 1101.32 156.76C1101.32 150.424 1102.7 145.144 1105.45 140.92C1108.2 136.632 1112.17 133.24 1117.35 130.744C1122.54 128.184 1128.81 126.36 1136.17 125.272C1143.53 124.184 1151.85 123.64 1161.13 123.64C1173.29 123.64 1183.37 124.76 1191.37 127C1199.37 129.176 1205.42 132.408 1209.51 136.696C1213.61 140.984 1215.82 146.2 1216.14 152.344H1191.18C1190.41 150.296 1189 148.504 1186.95 146.968C1184.91 145.368 1181.83 144.12 1177.74 143.224C1173.64 142.328 1168.11 141.88 1161.13 141.88C1152.94 141.88 1146.28 142.392 1141.16 143.416C1136.04 144.376 1132.3 145.944 1129.93 148.12C1127.56 150.296 1126.38 153.176 1126.38 156.76C1126.38 160.024 1127.56 162.68 1129.93 164.728C1132.3 166.776 1136.04 168.28 1141.16 169.24C1146.28 170.2 1152.94 170.68 1161.13 170.68C1168.11 170.68 1173.61 170.264 1177.64 169.432C1181.74 168.6 1184.81 167.48 1186.86 166.072C1188.91 164.6 1190.31 163.032 1191.08 161.368H1216.04ZM1249.2 146.776H1316.79V165.016H1249.2V146.776ZM1314.1 125.56H1338.1V187H1314.1V125.56ZM1228.66 125.56H1252.66V187H1228.66V125.56ZM1367.31 177.688V163.288H1432.97V177.688H1367.31ZM1345.8 187L1386.99 125.56H1413.68L1455.24 187H1428.84L1393.23 131.992H1407.53L1372.2 187H1345.8ZM1464.38 125.56H1488.38V187H1464.38V125.56ZM1599.54 168.184L1590.61 173.272V125.56H1614.61V187H1590.61L1518.32 145.144L1527.25 139.96V187H1503.25V125.56H1527.25L1599.54 168.184Z" fill="white"/>
<defs>
<linearGradient id="paint0_linear_1_12" x1="372" y1="109.5" x2="12.5" y2="112" gradientUnits="userSpaceOnUse">
<stop offset="0.163333" stop-color="#0AD793"/>
<stop offset="0.798766" stop-color="#441182"/>
<stop offset="1" stop-color="#0AD793"/>
</linearGradient>
<linearGradient id="paint1_linear_1_12" x1="372" y1="109.5" x2="12.5" y2="112" gradientUnits="userSpaceOnUse">
<stop offset="0.163333" stop-color="#0AD793"/>
<stop offset="0.798766" stop-color="#441182"/>
<stop offset="1" stop-color="#0AD793"/>
</linearGradient>
<linearGradient id="paint2_linear_1_12" x1="372" y1="109.5" x2="12.5" y2="112" gradientUnits="userSpaceOnUse">
<stop offset="0.163333" stop-color="#0AD793"/>
<stop offset="0.798766" stop-color="#441182"/>
<stop offset="1" stop-color="#0AD793"/>
</linearGradient>
</defs>
</svg>
