<svg width="684" height="201" viewBox="0 0 684 201" fill="none" xmlns="http://www.w3.org/2000/svg">
<g clip-path="url(#clip0_1337_309)">
<path d="M279.278 158.79C270.879 158.79 263.486 157.986 257.149 156.378C250.812 154.77 244.877 152.76 239.445 150.348V124.268H241.96C247.442 128.941 253.528 132.509 260.166 135.021C266.805 137.534 273.243 138.79 279.479 138.79C281.039 138.79 283.151 138.639 285.716 138.288C288.281 137.936 290.393 137.383 291.952 136.68C293.864 135.825 295.473 134.67 296.831 133.162C298.189 131.655 298.843 129.695 298.843 127.233C298.843 124.469 297.786 122.258 295.624 120.549C293.461 118.841 290.896 117.585 287.879 116.781C284.157 115.776 280.133 114.871 275.909 113.967C271.684 113.062 267.711 112.007 263.989 110.751C255.489 107.736 249.404 103.716 245.732 98.6906C242.061 93.6656 240.2 87.2839 240.2 79.6961C240.2 69.4451 244.525 61.1539 253.226 54.7721C261.927 48.3904 272.79 45.2246 285.766 45.2246C292.304 45.2246 298.792 45.8779 305.23 47.2346C311.668 48.5411 317.451 50.3501 322.581 52.6114V77.6359H320.167C316.094 74.1686 311.114 71.2039 305.23 68.7919C299.346 66.3799 293.31 65.1739 287.124 65.1739C284.71 65.1739 282.547 65.3246 280.636 65.6764C278.725 66.0281 276.713 66.6814 274.601 67.6864C272.891 68.4904 271.382 69.6461 270.125 71.2039C268.867 72.7616 268.264 74.4701 268.264 76.3796C268.264 79.1936 269.27 81.4046 271.231 83.0629C273.193 84.7211 277.065 86.1784 282.749 87.5351C286.42 88.3894 289.991 89.1934 293.411 89.9471C296.831 90.7009 300.452 91.8064 304.375 93.1631C311.969 95.9269 317.653 99.5951 321.374 104.218C325.096 108.841 326.957 114.972 326.957 122.559C326.957 133.464 322.682 142.207 314.082 148.84C305.481 155.473 293.864 158.79 279.278 158.79Z" fill="#111111"/>
<path d="M379.919 158.388C369.408 158.388 361.763 156.227 356.985 151.905C352.207 147.584 349.793 140.499 349.793 130.7V92.0577H339.936V74.1185H349.793V50.501H375.594V74.1185H400.439V92.0577H375.594V121.353C375.594 124.268 375.594 126.78 375.644 128.941C375.695 131.102 376.097 133.062 376.801 134.77C377.505 136.479 378.712 137.835 380.473 138.84C382.233 139.845 384.748 140.348 388.117 140.348C389.475 140.348 391.286 140.047 393.549 139.443C395.812 138.84 397.321 138.338 398.226 137.835H400.439V156.026C397.623 156.78 394.656 157.332 391.537 157.734C388.419 158.136 384.496 158.388 379.919 158.388Z" fill="#111111"/>
<path d="M465.372 148.036C463.611 149.494 462.002 150.85 460.644 152.006C459.286 153.162 457.375 154.368 455.011 155.524C452.698 156.629 450.434 157.534 448.272 158.086C446.109 158.639 443.041 158.991 439.118 158.991C431.775 158.991 425.74 156.529 420.862 151.654C415.983 146.78 413.619 140.549 413.619 133.112C413.619 126.982 414.826 122.007 417.291 118.238C419.755 114.469 423.276 111.454 427.903 109.243C432.58 106.982 438.163 105.424 444.651 104.52C451.139 103.615 458.129 102.962 465.573 102.46V102.007C465.573 97.4346 463.913 94.2688 460.544 92.5603C457.174 90.8518 452.144 89.9473 445.405 89.9473C442.337 89.9473 438.817 90.5001 434.743 91.6056C430.669 92.7111 426.696 94.1181 422.823 95.8266H420.61V75.8773C423.175 75.1236 427.299 74.2693 432.982 73.2643C438.666 72.2593 444.449 71.7568 450.233 71.7568C464.466 71.7568 474.877 74.1186 481.365 78.8421C487.853 83.5656 491.122 90.8016 491.122 100.5V156.73H465.472V148.036H465.372ZM465.372 135.223V117.987C460.996 118.439 457.476 118.791 454.76 119.143C452.044 119.494 449.429 120.097 446.813 121.002C444.55 121.806 442.79 122.962 441.532 124.57C440.275 126.178 439.671 128.288 439.671 130.951C439.671 134.821 440.728 137.484 442.79 138.941C444.852 140.398 447.97 141.102 452.044 141.102C454.307 141.102 456.621 140.599 458.984 139.544C461.348 138.489 463.461 137.082 465.372 135.223Z" fill="#111111"/>
<path d="M554.337 158.991C547.497 158.991 541.261 158.137 535.577 156.428C529.894 154.72 524.965 152.056 520.791 148.489C516.667 144.921 513.448 140.398 511.134 134.971C508.821 129.544 507.664 123.163 507.664 115.776C507.664 107.887 508.921 101.153 511.436 95.6257C513.951 90.0982 517.321 85.5254 521.596 81.9577C525.72 78.5407 530.548 75.9779 536.131 74.3197C541.713 72.6614 547.497 71.8574 553.532 71.8574C558.109 71.8574 562.686 72.3599 567.212 73.4152C571.739 74.4704 576.366 76.1287 580.993 78.4402V100.5H577.673C576.617 99.4949 575.36 98.4397 573.901 97.2839C572.443 96.1282 570.783 95.0227 569.023 94.0679C567.162 93.0127 565.05 92.1584 562.686 91.4549C560.322 90.7514 557.707 90.3997 554.79 90.3997C548.201 90.3997 543.121 92.7112 539.5 97.2839C535.879 101.857 534.068 108.037 534.068 115.776C534.068 124.067 535.98 130.248 539.852 134.318C543.725 138.388 548.805 140.449 555.192 140.449C558.411 140.449 561.278 140.097 563.742 139.343C566.206 138.589 568.319 137.735 570.079 136.68C571.789 135.625 573.248 134.569 574.505 133.464C575.762 132.358 576.768 131.353 577.673 130.499H580.993V152.559C579.534 153.212 577.824 153.916 575.863 154.77C573.901 155.624 571.94 156.277 569.928 156.83C567.413 157.534 565.1 158.036 562.887 158.388C560.674 158.74 557.908 158.991 554.337 158.991Z" fill="#111111"/>
<path d="M681.531 115.474C681.531 129.092 677.809 139.795 670.365 147.584C662.922 155.373 652.41 159.342 638.781 159.342C625.252 159.342 614.79 155.423 607.297 147.584C599.803 139.745 596.081 129.042 596.081 115.474C596.081 101.756 599.803 90.9522 607.297 83.2137C614.79 75.4752 625.302 71.5557 638.781 71.5557C652.36 71.5557 662.872 75.4752 670.315 83.3142C677.759 91.1532 681.531 101.856 681.531 115.474ZM655.076 115.625C655.076 110.7 654.674 106.63 653.869 103.364C653.064 100.098 651.958 97.4847 650.499 95.5249C648.991 93.4647 647.281 92.0074 645.319 91.2034C643.358 90.3994 641.195 89.9974 638.781 89.9974C636.467 89.9974 634.405 90.3492 632.494 91.0527C630.583 91.7562 628.923 93.1129 627.314 95.1229C625.855 97.0324 624.648 99.6454 623.793 103.012C622.938 106.379 622.485 110.55 622.485 115.575C622.485 120.6 622.888 124.72 623.743 127.836C624.598 130.951 625.654 133.464 626.962 135.323C628.32 137.232 630.08 138.639 632.142 139.494C634.204 140.348 636.467 140.8 638.982 140.8C641.044 140.8 643.156 140.348 645.269 139.494C647.381 138.639 649.091 137.283 650.399 135.524C651.908 133.413 653.064 130.851 653.869 127.886C654.674 124.921 655.076 120.901 655.076 115.625Z" fill="#111111"/>
<path d="M161.895 1.32685L21.6205 43.2745C-0.797592 49.9797 -7.45649 78.1222 9.63717 93.9328L116.584 192.854C133.678 208.665 161.699 200.284 167.028 177.768L200.351 36.8998C205.676 14.3839 184.313 -5.37836 161.895 1.32685Z" fill="url(#paint0_linear_1337_309)"/>
<path d="M161.896 1.32685L91.7959 22.2915C38.19 38.3225 22.2681 105.618 63.1378 143.426L116.581 192.859C133.675 208.67 161.696 200.289 167.025 177.773L200.352 36.8998C205.676 14.3839 184.314 -5.37836 161.896 1.32685Z" fill="url(#paint1_linear_1337_309)" fill-opacity="0.6"/>
<path d="M161.893 1.32685C77.1308 26.6745 51.9551 133.081 116.578 192.854C133.671 208.665 161.692 200.284 167.022 177.768L200.348 36.8998C205.673 14.3839 184.311 -5.37836 161.893 1.32685Z" fill="url(#paint2_linear_1337_309)" fill-opacity="0.6"/>
</g>
<defs>
<linearGradient id="paint0_linear_1337_309" x1="-0.00241577" y1="64.712" x2="182.759" y2="104.947" gradientUnits="userSpaceOnUse">
<stop offset="0.369792" stop-color="#F7578C"/>
<stop offset="1" stop-color="#0095FF"/>
</linearGradient>
<linearGradient id="paint1_linear_1337_309" x1="40.0947" y1="64.7135" x2="188.9" y2="90.9434" gradientUnits="userSpaceOnUse">
<stop stop-color="white"/>
<stop offset="1" stop-color="#0095FF"/>
</linearGradient>
<linearGradient id="paint2_linear_1337_309" x1="80.144" y1="64.712" x2="193.435" y2="79.7163" gradientUnits="userSpaceOnUse">
<stop stop-color="white"/>
<stop offset="1" stop-color="#0095FF"/>
</linearGradient>
<clipPath id="clip0_1337_309">
<rect width="684" height="201" fill="white"/>
</clipPath>
</defs>
</svg>
